<svg id="ea607a40-9f0d-4ebe-8e40-22aa291c872c" data-name="Layer 1" xmlns="http://www.w3.org/2000/svg" viewBox="0 0 546.71 222.38"><path d="M290.31,129.46c-9.27,0-24.2,15.7-31.58,27.8,8-21.74,14.7-33.28,22-49.54l3,0c13,0,24.42-1.44,33.9-4.2a58.51,58.51,0,0,0,23.94-14.18c9.67-9.71,15.41-22.48,15.62-33.51.38-16.63-12.47-24.38-21.93-24.38-20.47,0-42.5,20.32-64.48,64.92l-13.27-1c.57-2.84,5.7-15.77,5.7-18,0-10.59-5.29-12.67-6.62-12.67-1.13,0-1.89.76-1.89,2.46,0,4.53-6.46,18.91-9.29,25.72C216.2,88.55,207.7,82.6,150.38,71.38c-8.63-1.69-16.5-3-23.72-4,13.49-20,25.12-34.43,25.12-38.83,0-6.81-8.88-16.64-17.77-16.64-48.59,0-90.19,39-117.23,39-2.08,0-3.59-1.51-3.59-5.29,0-15.32,23.64-38.38,46.13-38.38,3.79,0,5.49.75,6.43.75.57,0,1.14,0,1.14-.75C66.89,5.86,62.16,0,53.65,0,31.53,0,2.41,20.23,2.41,40.84c0,9.26,9.65,19.66,21,19.66,30.82,0,66.74-34.41,113.82-34.41,0,0-13,12.07-30.62,39.31-19.31-1.07-33.07,1-44.95,5.34C32,81.53,31.49,95,32.66,100.24a2.6,2.6,0,0,0,2.92,2,2.63,2.63,0,0,0,2.15-2C38.83,96,45,84.8,79.23,81.52c5.86-.56,11.91-1,18.25-1.24-2.89,5-5.85,10.26-8.85,16,0,0,0,.06-7.56,15.12-17.4,36.12-21.75,58.8-21.75,67.5,0,8.89,9.08,14.18,13.05,14.18,3.4,0,2.84-32.54,30.44-85.1a304.38,304.38,0,0,1,15.28-27.36,200.67,200.67,0,0,1,24,3c29.56,5.56,59.71,11.71,99.16,20.68-6,12.58-14.65,28.52-22.21,44.19a7.85,7.85,0,0,0-1.12,1.27c-9.27,13-26.09,32.71-38.95,32.71-2.46,0-4.54-1.9-4.54-7.57a32.53,32.53,0,0,1,2.46-13s3.78,2.08,6.05,2.08c10,0,23.82-13.81,24-26.09,0-5.68-6.43-12.29-11.15-12.29-10,0-25.25,10.11-32.46,25.08-7.64,9.58-28.2,33.72-33,33.72-1.13,0-2.27-1-2.27-2.84,0-11.91,13.24-23.63,13.24-33.28,0-8.69-17-18.34-17-24.39,0-6.24,7.75-12.1,7.75-17.58,0-2.46-3.78-7.18-6-7.18-4.53,0-13.42,10.77-13.42,20.23,0,12.66,16.45,16.63,16.45,21.36,0,8.89-17.4,21.55-17.4,37.25,0,8.51,8.13,14.75,16.64,14.75,7.54,0,21.64-15,31.05-26.58,0,.54,0,1.08,0,1.62,0,14.93,11.15,22.12,22.87,22.12,7.82,0,18.47-9.51,27-19.12-3.71,9.66-6.13,18.41-6.13,25.19,0,16.45,10,26.47,14.56,26.47,1.51,0,2.45-.95,2.45-1.7,0-1.51-3-3.22-3-12.29,0-26.85,26.91-74.25,36.74-102.23,5.27.44,6.66.51,11.81,1.16-6.95,15.32-12.94,25.59-19.81,46-2.83,8.69-5.48,15.69-5.48,21,0,6.62,4.16,10.59,6.81,10.59,1.13,0,2.08-1.7,3.78-5.1,15.69-28.93,32.71-43.11,35.73-43.11,1.71,0,2.46,1.7,2.46,3.59-.94,19.47-27.6,52.94-48.78,52.94-1.32,0-2.08.76-2.08,1.7,0,1.89,5.67,4.92,12.86,4.92,24.77,0,52.75-32.9,52.75-54.46C303.92,135.51,297.68,129.46,290.31,129.46Zm45-91c4.92,0,9.6,4.34,9.41,12.47a30.68,30.68,0,0,1-1.07,6.83c-6.3,25.1-29.08,35.37-57.34,37.94C304.44,58,320.51,38.46,335.31,38.46ZM199.06,134.63c.57,0,.95.57.95,1.32-.38,5.11-15.7,19.86-20.61,19.86C188.85,139.17,197,134.63,199.06,134.63Z" transform="translate(-2.41 0)" style="fill:#4a5057"/><path d="M520.23,177.47c.94,2.69-4.54,4.14-7.15,3-4.4-1.9-5.78-6.66-5.83-11.35v-.24c0-21.74,41.87-91.65,41.87-109,0-11.91-8.32-18.91-12.48-18.91-1.89,0-2.08,1.14-3,5.86-5.3,24.58-16.16,64.25-30,87.88C495.15,149.23,468.3,184,464,184c-1.13,0-1.7-1-1.7-2.27,0-18,21-36.49,29.31-44.05,4.35-4,8.88-5.86,8.88-7,0-1.89-3.59-5.29-8.32-5.29-11,0-26.53,10.76-35.87,25.52l-.47.65c-8.7,13.43-24.66,33.8-37.51,34.36-2.45.1-4.61-1.7-4.85-7.36a32.44,32.44,0,0,1,1.89-13.14s3.87,1.91,6.13,1.81c10-.43,23.21-14.81,22.87-27.1-.25-5.66-6.95-12-11.68-11.79-9,.38-21.87,9.15-29.14,22a6.9,6.9,0,0,0-1.23,1.35c-6.8,9.07-23.06,33.28-28,33.28-.75,0-1.13-.76-1.13-2.27,0-7.56,13.8-22.31,13.8-31.2s-13.8-15.31-13.8-22.31c0-3.21,3.4-6,3.4-13s-5.1-11.34-8.13-11.34-6.81,6.81-6.81,11.53c0,4.54,1.14,5.86,1.14,10.4s-8.13,13-11.54,14.75-6.8,3-6.8,7c0,14.74-14.75,36.11-20.8,36.11-1.89,0-3.21-2.08-3.21-6,0-18,17.58-35.55,23.63-39.52,3.21-2.08,5.29-1.89,5.29-4.16s-5.67-7.37-9.45-7.37c-10.21,0-33.84,20.8-33.84,44.81,0,10,8.13,19.1,18.71,19.1s30.82-21,30.82-35.93a10.49,10.49,0,0,0-2.64-7c7.75-3.6,14.74-12.1,15.69-12.1s7.56,6.23,7.56,7.75c0,4.35-16.64,24.39-16.64,33.08s7.19,14.56,15.89,14.56c5.84,0,15.52-12.11,22.56-22.36,0,.86,0,1.73,0,2.6.65,14.92,12.1,21.62,23.81,21.11,8-.34,18.43-10.68,26.67-20.84a36.29,36.29,0,0,0-.21,3.76c0,8.89,8.89,16.26,14.37,16.26,12.1,0,22.88-21.74,33.09-32.9,0,0-.38,5.48-.38,7.94,0,14.75,12,22.32,21.58,22.81,5.58.29,7.72-.48,10.39-2.4,3.76-2.69,3.06-6.54,2.74-8.43C529.25,174.67,522.93,173.54,520.23,177.47Zm-84-40.19c.56,0,1,.53,1,1.28-.16,5.12-14.83,20.51-19.74,20.73C426.23,142.26,434.16,137.37,436.24,137.28Z" transform="translate(-2.41 0)" style="fill:#4a5057"/></svg>