<svg id="af389645-613b-4540-b023-3a2605b3e10b" data-name="Layer 1" xmlns="http://www.w3.org/2000/svg" viewBox="0 0 200 200"><path d="M100,0A99.65,99.65,0,0,0,32.35,26.36C40.81,20.61,51,16.9,59.88,16.9c7.53,0,11.72,5.19,11.72,6.36,0,.67-.5.67-1,.67a33.21,33.21,0,0,0-5.69-.67c-19.91,0-40.83,20.42-40.83,34,0,3.34,1.34,4.68,3.18,4.68C51.18,61.92,88,27.45,131,27.45c7.87,0,15.73,8.7,15.73,14.73,0,3.43-8.3,14.83-18.64,30.36,14.37-3.79,26.92-4.67,33.46,1.15,4.64,4.12,6.13,10.18,4.6,11.89-.69.78-1.74.68-4.17.19-10-2.18-27.05-.08-44.76,3.67-5.12,8.31-10.23,17.25-14.69,26.42-24.44,46.53-23.08,71.92-26.09,71.92-3.51,0-11.55-4.69-11.55-12.55,0-7.7,3.85-27.78,19.25-59.75,6.72-13.34,6.69-13.39,6.69-13.39,1.31-2.48,2.6-4.86,3.89-7.18C82.17,98.34,70.74,102,63,105c-1.88.83-3.21,1-4,.32-1-.85-.94-4.74.16-6a12,12,0,0,1,3.32-1.79C72.32,94,87.29,87.09,102.81,81.05c17.52-28.53,31.05-41,31.05-41C92.18,40,60.39,70.46,33.11,70.46c-10,0-18.58-9.21-18.58-17.41a21.52,21.52,0,0,1,1.18-6.87A100,100,0,1,0,100,0Z" style="fill:#e2716d"/></svg>